<svg width="256" height="256" viewBox="0 0 256 256" fill="none" xmlns="http://www.w3.org/2000/svg">
<path d="M119.57 0H137.49C164.255 0.388477 188.681 1.84941 210.767 4.38281C231.531 6.76348 249.117 23.5477 251.533 44.5752C254.076 66.7748 255.565 91.1077 256 117.574V137.486C255.618 160.549 254.263 183.544 251.936 206.47C251.514 210.614 250.98 213.886 250.332 216.287C245.466 234.216 230.121 248.416 211.425 250.533C189.122 253.063 165.038 254.552 139.173 255H117.892C94.7822 254.625 71.7442 253.232 48.7776 250.821C44.6073 250.386 41.3418 249.835 38.9811 249.168C23.193 244.71 10.8215 232.175 6.64287 216.292C6.04521 214.021 5.52559 210.745 5.08398 206.465C2.72656 183.605 1.36523 160.673 1 137.67V117.136C1.40508 93.4353 2.82617 69.7996 5.26328 46.2287C7.28535 26.6704 20.7525 10.7379 39.7182 5.65781C42.0523 5.03027 45.3245 4.50068 49.5347 4.06904C72.8134 1.68506 96.1585 0.328711 119.57 0ZM208.243 95.54C208.265 82.9188 203.273 70.8058 194.364 61.8657C185.455 52.9256 173.359 47.8907 160.738 47.8686L96.54 47.7566C83.9188 47.7346 71.8058 52.7272 62.8657 61.6362C53.9256 70.5451 48.8907 82.6406 48.8686 95.2618L48.7566 159.46C48.7346 172.081 53.7272 184.194 62.6362 193.134C71.5451 202.074 83.6406 207.109 96.2618 207.131L160.46 207.243C173.081 207.265 185.194 202.273 194.134 193.364C203.074 184.455 208.109 172.359 208.131 159.738L208.243 95.54Z" fill="#399FB6"/>
<path d="M192.074 159.795C192.06 168.134 188.733 176.125 182.826 182.011C176.92 187.897 168.916 191.196 160.578 191.182L96.2002 191.069C87.8614 191.055 79.8698 187.728 73.9837 181.821C68.0975 175.915 64.7989 167.912 64.8134 159.573L64.9258 95.1952C64.9404 86.8564 68.2669 78.8649 74.1737 72.9787C80.0804 67.0925 88.0835 63.7939 96.4223 63.8085L160.8 63.9208C169.139 63.9354 177.13 67.2619 183.016 73.1687C188.902 79.0754 192.201 87.0785 192.187 95.4174L192.074 159.795ZM180.053 86.3065C180.053 83.6277 178.989 81.0587 177.094 79.1645C175.2 77.2703 172.631 76.2061 169.952 76.2061C167.274 76.2061 164.705 77.2703 162.81 79.1645C160.916 81.0587 159.852 83.6277 159.852 86.3065C159.852 88.9853 160.916 91.5544 162.81 93.4486C164.705 95.3428 167.274 96.4069 169.952 96.4069C172.631 96.4069 175.2 95.3428 177.094 93.4486C178.989 91.5544 180.053 88.9853 180.053 86.3065ZM169.674 127.495C169.674 116.574 165.335 106.1 157.613 98.3774C149.89 90.655 139.416 86.3165 128.495 86.3165C117.574 86.3165 107.1 90.655 99.3774 98.3774C91.655 106.1 87.3165 116.574 87.3165 127.495C87.3165 138.416 91.655 148.89 99.3774 156.613C107.1 164.335 117.574 168.674 128.495 168.674C139.416 168.674 149.89 164.335 157.613 156.613C165.335 148.89 169.674 138.416 169.674 127.495Z" fill="#399FB6"/>
<path d="M128.495 152.661C142.391 152.661 153.656 141.396 153.656 127.5C153.656 113.604 142.391 102.339 128.495 102.339C114.599 102.339 103.334 113.604 103.334 127.5C103.334 141.396 114.599 152.661 128.495 152.661Z" fill="#399FB6"/>
</svg>
