<svg width="256" height="256" viewBox="0 0 256 256" fill="none" xmlns="http://www.w3.org/2000/svg">
<path d="M251.518 44.5839C249.077 23.5622 231.496 6.77476 210.728 4.38367C188.664 1.84313 164.26 0.398515 137.465 0H119.535C96.127 0.348701 72.7686 1.69369 49.5098 4.08478C45.2764 4.53311 42.0391 5.03126 39.6982 5.67884C20.7725 10.7599 7.27539 26.6507 5.2832 46.2278C2.84277 69.79 1.39844 93.4518 1 117.164V137.687C1.34863 160.701 2.74316 183.616 5.08398 206.481C5.53223 210.765 6.03027 214.053 6.62793 216.294C10.8115 232.185 23.1631 244.738 38.9512 249.172C41.292 249.819 44.5791 250.367 48.7627 250.816C71.7227 253.207 94.7822 254.601 117.892 255H139.158C165.007 254.552 189.112 253.057 211.425 250.517C230.102 248.424 245.491 234.178 250.322 216.244C250.97 213.853 251.518 210.566 251.916 206.431C254.257 183.516 255.602 160.502 256 137.438V117.512C255.552 91.1106 254.058 66.8011 251.518 44.5839ZM197.33 128.272C192.897 161.449 164.608 187.153 131.14 188.199C118.639 188.597 106.885 185.808 95.8281 179.93C95.7285 179.88 95.6289 179.88 95.5293 179.88L59.2217 189.394C59.0723 189.444 59.0225 189.394 59.0225 189.195L68.7344 153.777C68.7842 153.628 68.7344 153.478 68.6846 153.329C49.3105 119.256 62.0107 76.5648 95.8779 58.0836C107.333 51.8568 119.685 49.117 132.982 49.8642C173.025 52.2055 202.659 88.4206 197.33 128.272Z" fill="white"/>
<path d="M91.6943 75.0703C70.6768 92.9537 65.248 122.593 78.4463 146.803C79.2432 148.298 80.3887 149.991 81.335 151.635C81.3848 151.735 81.3848 151.834 81.3848 151.934L75.6572 172.806C75.6572 172.856 75.6572 172.906 75.7568 172.956H75.8066L97.2226 167.327C97.3223 167.277 97.4219 167.327 97.5215 167.376C98.667 168.074 99.8623 168.721 101.008 169.369C115.551 177.439 133.331 178.784 148.92 172.906C177.408 162.096 192.698 131.062 183.684 101.97C171.631 62.6665 122.972 48.4694 91.6943 75.0703ZM162.467 144.013C161.072 147.152 157.187 149.493 154.1 150.838C147.177 153.877 140.005 151.436 133.431 148.945C118.937 143.466 107.881 132.357 99.2646 119.455C92.79 109.741 90.5488 98.3337 99.6631 89.1678C102.253 86.5276 105.241 86.8763 108.628 87.1254C109.873 87.225 110.919 88.7693 111.417 90.0147C113.21 94.4481 115.053 98.8816 116.895 103.315C117.344 104.411 117.244 105.357 116.547 106.404C115.202 108.446 113.758 110.389 112.214 112.282C111.218 113.477 111.118 114.274 111.915 115.52C117.892 125.233 125.86 132.606 136.618 136.392C137.564 136.741 138.411 136.193 139.059 135.445C140.951 133.303 142.894 130.912 144.836 128.322C145.882 126.927 147.426 127.425 148.97 128.172C153.402 130.165 157.785 132.307 162.168 134.499C163.413 135.147 163.861 135.694 163.812 137.039C163.812 139.729 163.363 142.071 162.467 144.013Z" fill="white"/>
</svg>
