<svg width="256" height="256" viewBox="0 0 256 256" fill="none" xmlns="http://www.w3.org/2000/svg">
<path d="M126.657 132.257C128.102 133.702 129.197 133.503 130.592 132.108C147.725 114.972 164.957 97.7857 182.14 80.5499C182.339 80.3507 182.289 80.3008 182.04 80.3008H74.8105C74.7607 80.3008 74.7607 80.3507 74.7607 80.3507V80.4005C92.1426 97.7857 109.425 115.071 126.657 132.257Z" fill="#399FB6"/>
<path d="M100.012 119.156L65.9951 85.1827C65.9453 85.1328 65.8955 85.1328 65.8457 85.1827C65.8457 85.1827 65.8457 85.1827 65.8457 85.2325C65.7959 85.3321 65.7959 85.4317 65.8457 85.5314C65.8457 85.5812 65.8457 85.6808 65.8457 85.7306C65.8457 85.7804 65.8457 85.8302 65.8457 85.8302C65.8457 107.25 65.8457 128.671 65.8457 150.091C65.8457 151.037 65.9951 151.934 66.2441 152.88C66.2939 152.98 66.3936 153.03 66.4932 153.03C66.543 153.03 66.543 152.98 66.5928 152.98L100.062 119.505C100.062 119.306 100.062 119.256 100.012 119.156Z" fill="#399FB6"/>
<path d="M150.215 126.13C150.165 126.08 150.065 126.08 150.016 126.13C146.28 129.866 142.545 133.602 138.81 137.338C136.867 139.281 135.473 140.526 134.576 141.074C129.895 144.013 123.968 143.167 120.033 139.281C115.65 134.897 111.317 130.564 107.034 126.28C106.885 126.13 106.785 126.13 106.636 126.28L77.251 155.67C77.2012 155.72 77.2012 155.77 77.251 155.77H179.6C179.649 155.77 179.699 155.72 179.699 155.67V155.62L150.215 126.13Z" fill="#399FB6"/>
<path d="M251.518 44.5839C249.077 23.5622 231.496 6.77476 210.728 4.38367C188.664 1.84313 164.26 0.398515 137.465 0H119.535C96.127 0.348701 72.7686 1.69369 49.5098 4.08478C45.2764 4.53311 42.0391 5.03126 39.6982 5.67884C20.7725 10.7599 7.27539 26.6507 5.2832 46.2278C2.84277 69.79 1.39844 93.4518 1 117.164V137.687C1.34863 160.701 2.74316 183.616 5.08398 206.481C5.53223 210.765 6.03027 214.053 6.62793 216.294C10.8115 232.185 23.1631 244.738 38.9512 249.172C41.292 249.819 44.5791 250.367 48.7627 250.816C71.7227 253.207 94.7822 254.601 117.892 255H139.158C165.007 254.552 189.112 253.057 211.425 250.517C230.102 248.424 245.491 234.178 250.322 216.244C250.97 213.853 251.518 210.566 251.916 206.431C254.257 183.516 255.602 160.502 256 137.438V117.512C255.552 91.1106 254.058 66.8011 251.518 44.5839ZM200.717 151.685C200.219 158.011 195.836 163.441 189.66 164.886C188.564 165.135 186.672 165.284 184.032 165.284C146.878 165.284 109.773 165.284 72.6191 165.284C70.1787 165.284 68.3857 165.185 67.3896 164.936C61.0645 163.491 56.7314 157.962 56.2334 151.585V84.4354C56.6318 78.0094 61.1143 72.6294 67.29 71.1848C68.3857 70.9357 70.0293 70.7863 72.1709 70.7863C110.371 70.7863 148.521 70.7863 186.722 70.7863C194.292 70.7863 200.169 77.2123 200.667 84.5351V151.685H200.717Z" fill="#399FB6"/>
<path d="M191.055 85.083C191.005 85.083 191.005 85.083 190.955 85.1328C190.905 85.1328 190.905 85.1827 190.905 85.2325C190.905 85.2823 190.855 85.3321 190.806 85.3819L157.038 119.156C156.938 119.256 156.938 119.405 157.038 119.455L190.457 152.88C190.557 152.98 190.656 152.98 190.756 152.88C190.756 152.88 190.806 152.831 190.806 152.781C191.055 151.834 191.204 150.888 191.204 149.941C191.204 128.322 191.204 106.752 191.204 85.1827C191.204 85.1328 191.154 85.083 191.055 85.083Z" fill="#399FB6"/>
</svg>
