<svg width="256" height="256" viewBox="0 0 256 256" fill="none" xmlns="http://www.w3.org/2000/svg">
<path d="M251.518 44.5839C249.077 23.5622 231.496 6.77476 210.728 4.38367C188.664 1.84313 164.26 0.398515 137.465 0H119.535C96.127 0.348701 72.7686 1.69369 49.5098 4.08478C45.2764 4.53311 42.0391 5.03126 39.6982 5.67884C20.7725 10.7599 7.27539 26.6507 5.2832 46.2278C2.84277 69.79 1.39844 93.4518 1 117.164V137.687C1.34863 160.701 2.74316 183.616 5.08398 206.481C5.53223 210.765 6.03027 214.053 6.62793 216.294C10.8115 232.185 23.1631 244.738 38.9512 249.172C41.292 249.819 44.5791 250.367 48.7627 250.816C71.7227 253.207 94.7822 254.601 117.892 255H139.158C165.007 254.552 189.112 253.057 211.425 250.517C230.102 248.424 245.491 234.178 250.322 216.244C250.97 213.853 251.518 210.566 251.916 206.431C254.257 183.516 255.602 160.502 256 137.438V117.512C255.552 91.1106 254.058 66.8011 251.518 44.5839ZM164.21 72.4302C164.21 72.5298 164.16 72.5796 164.061 72.5796C158.632 72.5796 153.054 72.3803 147.625 72.8287C142.047 73.3268 139.158 77.6109 139.158 82.9908C139.158 88.6199 139.158 94.2489 139.158 99.9277C139.158 100.027 139.208 100.077 139.308 100.077H163.114C163.264 100.077 163.313 100.127 163.264 100.276L160.176 124.287C160.176 124.436 160.026 124.536 159.877 124.536H139.258C139.158 124.536 139.108 124.586 139.108 124.685V187.252H113.857V124.685C113.857 124.586 113.808 124.536 113.708 124.536H92.8896C92.79 124.536 92.6904 124.436 92.6904 124.337V100.326C92.6904 100.227 92.79 100.127 92.8896 100.127H113.608C113.708 100.127 113.808 100.027 113.808 99.9277C113.808 93.7009 113.808 87.4243 113.808 81.1477C113.808 63.9119 124.416 51.01 142.047 49.9639C142.894 49.914 143.69 49.8642 144.537 49.7646H146.529C152.307 49.8144 158.084 50.1631 163.812 50.7111C163.961 50.7111 164.061 50.8107 164.061 50.9602V72.4302H164.21Z" fill="white"/>
</svg>
