<svg width="256" height="256" viewBox="0 0 256 256" fill="none" xmlns="http://www.w3.org/2000/svg">
<path d="M147.077 135.595C155.942 139.231 161.371 117.413 157.486 113.228C157.337 113.029 157.088 112.929 156.839 112.929C150.613 112.332 147.326 130.215 146.529 134.648C146.43 135.047 146.679 135.445 147.077 135.595Z" fill="#399FB6"/>
<path d="M89.9512 167.626C89.9014 167.626 89.8018 167.626 89.752 167.626C82.8291 170.664 77.749 175.646 74.4619 182.52C73.416 184.712 72.8682 190.49 76.6533 188.398C82.8789 185.011 87.71 174.55 90.1006 167.924C90.1504 167.825 90.1006 167.675 89.9512 167.626Z" fill="#399FB6"/>
<path d="M129.994 115.221C122.474 117.064 119.286 126.329 119.734 133.154C119.834 134.599 120.681 136.94 121.976 137.289C126.01 138.484 128.052 130.663 129.098 127.625C129.596 126.28 134.277 114.175 129.994 115.221Z" fill="#399FB6"/>
<path d="M114.007 75.8674C114.804 81.9945 120.232 84.9834 126.109 82.941C131.289 81.1477 132.136 74.3729 127.155 71.7328C125.113 70.6368 118.539 68.5446 118.141 66.3528C117.443 62.1186 123.47 62.3178 125.611 64.5097C126.757 65.6554 126.159 69.0428 128.55 68.5446C129.347 68.3454 129.944 67.648 129.944 66.8011C129.895 57.187 112.812 57.984 114.854 67.1C115.7 70.9855 121.229 72.5298 124.366 74.0242C127.205 75.419 127.952 79.5038 123.968 80.1514C119.983 80.799 117.792 79.0555 117.294 74.9209C117.244 74.622 117.095 74.4227 116.846 74.2733C116.397 74.0242 115.949 73.9246 115.401 74.0242C114.555 74.074 113.907 74.9209 114.007 75.8674Z" fill="#399FB6"/>
<path d="M132.684 82.8912L132.733 82.941C133.53 83.3893 134.526 83.0904 134.975 82.2934L145.732 62.3178C146.181 61.5208 145.882 60.5245 145.085 60.0762L145.035 60.0264C144.238 59.578 143.242 59.8769 142.794 60.674L131.986 80.6495C131.588 81.4466 131.887 82.4429 132.684 82.8912Z" fill="#399FB6"/>
<path d="M183.534 108.346C180.048 106.852 176.462 115.52 175.765 117.911C175.715 118.06 175.814 118.21 175.964 118.259C176.014 118.259 176.063 118.259 176.113 118.259C179.052 117.462 181.393 115.868 183.136 113.378C184.231 111.833 184.53 110.389 184.082 108.944C183.982 108.645 183.833 108.446 183.534 108.346Z" fill="#399FB6"/>
<path d="M251.518 44.5839C249.077 23.5622 231.496 6.77476 210.728 4.38367C188.664 1.84313 164.26 0.398515 137.465 0H119.535C96.127 0.348701 72.7686 1.69369 49.5098 4.08478C45.2764 4.53311 42.0391 5.03126 39.6982 5.67884C20.7725 10.7599 7.27539 26.6507 5.2832 46.2278C2.84277 69.79 1.39844 93.4518 1 117.164V137.687C1.34863 160.701 2.74316 183.616 5.08398 206.481C5.53223 210.765 6.03027 214.053 6.62793 216.294C10.8115 232.185 23.1631 244.738 38.9512 249.172C41.292 249.819 44.5791 250.367 48.7627 250.816C71.7227 253.207 94.7822 254.601 117.892 255H139.158C165.007 254.552 189.112 253.057 211.425 250.517C230.102 248.424 245.491 234.178 250.322 216.244C250.97 213.853 251.518 210.566 251.916 206.431C254.257 183.516 255.602 160.502 256 137.438V117.512C255.552 91.1106 254.058 66.8011 251.518 44.5839ZM102.353 62.2182C108.429 42.7408 132.933 35.7169 147.725 50.4122C159.927 62.4673 157.984 81.8949 144.438 91.9574C137.465 97.1381 129.197 98.4333 119.685 95.8429C117.394 95.2452 111.566 99.9277 109.375 101.273C109.126 101.422 108.877 101.422 108.628 101.273C106.735 100.227 108.578 91.808 108.628 89.4667C108.628 89.2176 108.528 88.9685 108.379 88.7693C101.406 80.4005 99.4141 71.5833 102.353 62.2182ZM176.91 152.482C165.256 153.827 153.651 155.371 142.047 157.015C141.798 157.065 141.648 157.214 141.599 157.463C141.3 159.605 140.503 162.395 138.461 163.441C134.875 165.284 134.377 160.602 134.925 158.46C134.975 158.211 134.825 158.011 134.626 157.962C134.576 157.962 134.526 157.962 134.477 157.962C122.922 159.805 111.467 162.046 100.111 164.686C99.8125 164.736 99.6133 164.985 99.5137 165.234C96.376 175.297 92.1426 184.961 84.4727 192.284C76.2051 200.204 63.5049 195.82 66.792 183.068C70.0293 170.614 81.1855 161.897 92.8398 157.712C93.0889 157.613 93.2383 157.463 93.3379 157.214L97.7705 143.864C97.8203 143.764 97.7207 143.615 97.6211 143.615C97.5215 143.615 97.4717 143.615 97.4219 143.665C95.3799 146.155 92.3418 148.646 88.9551 148.945C76.4541 150.041 86.0166 126.479 88.1582 121.597C88.2578 121.348 88.3076 121.099 88.2578 120.85C88.1084 119.405 88.208 117.961 88.5566 116.516C88.6563 116.018 89.0547 115.669 89.5029 115.569C93.8359 114.623 95.8281 118.11 94.583 122.045C92.9893 127.027 89.9014 134.499 90.8975 138.683C90.9473 138.932 91.0967 139.132 91.2959 139.281C97.2227 143.466 104.096 120.152 105.092 117.064C105.789 114.972 106.536 113.527 107.333 112.68C108.777 111.186 112.164 109.343 114.256 110.538C114.455 110.688 114.604 110.887 114.654 111.136C114.704 112.381 114.604 113.577 114.256 114.723C110.421 128.073 106.636 141.473 102.801 154.873C102.751 154.973 102.851 155.122 102.95 155.172C103 155.172 103 155.172 103.05 155.172L136.319 149.842C136.519 149.792 136.618 149.692 136.668 149.493L137.913 143.117C138.013 142.668 137.863 142.569 137.465 142.768C134.128 144.462 129.496 145.807 128.45 140.676C128.4 140.477 128.201 140.377 128.052 140.377C127.952 140.377 127.853 140.477 127.803 140.576C125.761 145.807 118.838 148.845 114.754 144.013C107.184 135.147 119.286 100.924 132.982 110.588C133.182 110.737 133.331 110.688 133.431 110.439L134.128 108.546C134.228 108.247 134.526 107.998 134.825 107.898C138.063 106.902 140.702 108.546 139.855 112.182C138.212 119.256 135.622 127.525 135.622 134.748C135.622 135.246 136.021 135.645 136.519 135.645H136.568C138.262 135.545 139.557 134.549 139.905 132.755C141.499 124.536 143.143 116.317 144.836 108.097C144.985 107.3 145.683 106.752 146.479 106.702C147.974 106.653 149.368 106.952 150.713 107.599C151.012 107.749 151.161 108.047 151.111 108.396L150.713 110.239C150.663 110.389 150.763 110.588 150.912 110.638C151.062 110.688 151.211 110.588 151.261 110.488C152.605 107.998 154.548 106.404 156.988 105.607C172.278 100.775 165.654 141.573 152.157 142.818C149.418 143.067 146.978 142.121 144.786 140.028C144.487 139.729 144.338 139.829 144.288 140.178L142.993 148.596C142.943 148.895 143.093 149.045 143.392 148.995C153.95 147.5 164.559 146.305 175.217 145.358C178.105 145.109 181.94 145.408 181.841 149.393C181.791 152.233 179.052 152.233 176.91 152.482ZM190.407 110.439C188.166 118.508 182.937 123.34 174.719 124.885C174.47 124.935 174.271 125.084 174.171 125.283C173.274 127.176 172.428 132.357 175.217 133.054C178.753 133.951 183.484 129.866 185.526 127.375C188.365 123.938 190.756 130.414 188.465 133.054C181.442 141.174 165.505 147.6 166.003 129.368C166.252 120.601 172.627 99.8281 184.879 101.372C189.61 102.07 191.652 105.905 190.407 110.439Z" fill="#399FB6"/>
</svg>
