<svg width="256" height="256" viewBox="0 0 256 256" fill="none" xmlns="http://www.w3.org/2000/svg">
<path d="M95.3301 57.6353L95.2803 57.5855H77.0518C77.002 57.5855 77.002 57.6353 77.002 57.6353V57.6851L161.57 178.684L161.62 178.734H179.849C179.898 178.734 179.898 178.684 179.898 178.684V178.635L95.3301 57.6353Z" fill="white"/>
<path d="M251.518 44.5839C249.077 23.5622 231.496 6.77476 210.728 4.38367C188.664 1.84313 164.26 0.398515 137.465 0H119.535C96.127 0.348701 72.7686 1.69369 49.5098 4.08478C45.2764 4.53311 42.0391 5.03126 39.6982 5.67884C20.7725 10.7599 7.27539 26.6507 5.2832 46.2278C2.84277 69.79 1.39844 93.4518 1 117.164V137.687C1.34863 160.701 2.74316 183.616 5.08398 206.481C5.53223 210.765 6.03027 214.053 6.62793 216.294C10.8115 232.185 23.1631 244.738 38.9512 249.172C41.292 249.819 44.5791 250.367 48.7627 250.816C71.7227 253.207 94.7822 254.601 117.892 255H139.158C165.007 254.552 189.112 253.057 211.425 250.517C230.102 248.424 245.491 234.178 250.322 216.244C250.97 213.853 251.518 210.566 251.916 206.431C254.257 183.516 255.602 160.502 256 137.438V117.512C255.552 91.1106 254.058 66.8011 251.518 44.5839ZM196.234 187.402H155.942C155.893 187.402 155.893 187.402 155.893 187.352L118.987 133.602C118.937 133.552 118.937 133.552 118.888 133.602L72.6689 187.402L72.6191 187.452H60.8652C60.8154 187.452 60.7656 187.402 60.7656 187.352V187.302L113.559 125.831C113.559 125.781 113.608 125.781 113.559 125.732L60.7158 48.7185C60.666 48.6687 60.7158 48.6189 60.7158 48.6189H101.008C101.058 48.6189 101.058 48.6189 101.058 48.6687L136.021 99.579C136.07 99.6288 136.07 99.6288 136.12 99.579L179.898 48.6687L179.948 48.6189H191.752C191.802 48.6189 191.852 48.6687 191.852 48.7185V48.7683L141.449 107.3C141.449 107.35 141.399 107.35 141.449 107.4L196.284 187.252C196.284 187.302 196.284 187.352 196.234 187.402Z" fill="white"/>
</svg>
