<svg width="128" height="128" viewBox="0 0 128 128" fill="none" xmlns="http://www.w3.org/2000/svg">
<path fill-rule="evenodd" clip-rule="evenodd" d="M18 34.5C18 30.3579 21.3579 27 25.5 27H103.5C107.642 27 111 30.3579 111 34.5C111 38.6421 107.642 42 103.5 42H25.5C21.3579 42 18 38.6421 18 34.5ZM18 64.5C18 60.3579 21.3579 57 25.5 57H103.5C107.642 57 111 60.3579 111 64.5C111 68.6421 107.642 72 103.5 72H25.5C21.3579 72 18 68.6421 18 64.5ZM25.5 87C21.3579 87 18 90.3579 18 94.5C18 98.6421 21.3579 102 25.5 102H103.5C107.642 102 111 98.6421 111 94.5C111 90.3579 107.642 87 103.5 87H25.5Z" fill="#399FB6"/>
</svg>
