<?xml version="1.0" encoding="UTF-8" standalone="no"?>
<!DOCTYPE svg PUBLIC "-//W3C//DTD SVG 1.1//EN" "http://www.w3.org/Graphics/SVG/1.1/DTD/svg11.dtd">
<svg xmlns="http://www.w3.org/2000/svg" version="1.1" viewBox="0.00 0.00 512.00 512.00">
<path fill="#000000" d="
  M 238.07 0.00
  L 274.05 0.00
  Q 354.66 1.17 421.18 8.80
  C 462.87 13.58 498.18 47.28 503.03 89.50
  Q 510.69 156.36 512.00 236.07
  L 512.00 276.05
  Q 510.85 345.51 503.84 414.56
  Q 502.57 427.04 500.62 434.27
  C 490.85 470.27 460.04 498.78 422.50 503.03
  Q 355.33 510.65 277.43 512.00
  L 234.70 512.00
  Q 165.10 510.87 95.93 503.61
  Q 83.37 502.30 76.26 500.29
  C 44.56 491.34 19.72 466.17 11.33 434.28
  Q 9.53 427.44 8.20 414.55
  Q 1.10 345.70 0.00 276.42
  L 0.00 235.19
  Q 1.22 163.81 8.56 92.82
  C 12.62 53.55 39.66 21.56 77.74 11.36
  Q 84.77 9.47 97.45 8.17
  Q 167.56 0.99 238.07 0.00
  Z
  M 416.1122 191.8294
  A 95.55 95.55 0.0 0 0 320.7292 96.1127
  L 191.8294 95.8878
  A 95.55 95.55 0.0 0 0 96.1127 191.2708
  L 95.8878 320.1706
  A 95.55 95.55 0.0 0 0 191.2708 415.8873
  L 320.1706 416.1122
  A 95.55 95.55 0.0 0 0 415.8873 320.7292
  L 416.1122 191.8294
  Z"
/>
<path fill="#000000" d="
  M 383.6470 320.8429
  A 63.13 63.13 0.0 0 1 320.4069 383.8626
  L 191.1471 383.6370
  A 63.13 63.13 0.0 0 1 128.1274 320.3969
  L 128.3530 191.1371
  A 63.13 63.13 0.0 0 1 191.5931 128.1174
  L 320.8529 128.3430
  A 63.13 63.13 0.0 0 1 383.8726 191.5831
  L 383.6470 320.8429
  Z
  M 359.51 173.29
  A 20.28 20.28 0.0 0 0 339.23 153.01
  A 20.28 20.28 0.0 0 0 318.95 173.29
  A 20.28 20.28 0.0 0 0 339.23 193.57
  A 20.28 20.28 0.0 0 0 359.51 173.29
  Z
  M 338.67 255.99
  A 82.68 82.68 0.0 0 0 255.99 173.31
  A 82.68 82.68 0.0 0 0 173.31 255.99
  A 82.68 82.68 0.0 0 0 255.99 338.67
  A 82.68 82.68 0.0 0 0 338.67 255.99
  Z"
/>
<circle fill="#000000" cx="255.99" cy="256.00" r="50.52"/>
</svg>
