<svg width="400" height="300" viewBox="0 0 400 300" fill="none" xmlns="http://www.w3.org/2000/svg">
<path fill-rule="evenodd" clip-rule="evenodd" d="M89.1769 190.808C89.1769 188.121 86.9238 185.782 84.1506 185.782H78.6911V229.458C78.6044 233.878 80.5109 236.218 84.4106 236.651C88.3103 236.998 92.0367 236.998 95.4164 236.738V229.112H92.21C90.1302 229.112 89.1769 228.245 89.1769 226.512V204.327H90.3035C93.2499 204.327 95.5031 202.247 95.5031 199.301V197.134H89.1769V190.808Z" fill="#399FB6"/>
<path fill-rule="evenodd" clip-rule="evenodd" d="M124.534 202.16V223.219C124.534 227.638 122.194 229.892 117.428 229.892C112.662 229.892 110.322 227.725 110.322 223.219V197.134H99.8361V221.139C99.8361 227.898 101.656 232.231 105.296 234.398C108.935 236.651 112.748 237.778 117.081 237.778C121.588 237.778 125.661 236.738 129.387 234.658C133.114 232.491 134.933 227.898 134.933 221.052V197.047H129.56C126.094 197.134 124.448 198.781 124.534 202.16Z" fill="#399FB6"/>
<path fill-rule="evenodd" clip-rule="evenodd" d="M139.44 216.459V237.084H150.099V216.286C150.099 210.48 153.045 207.533 158.852 207.533H162.405V197.134H160.931C146.979 197.134 139.786 203.547 139.44 216.459Z" fill="#399FB6"/>
<path fill-rule="evenodd" clip-rule="evenodd" d="M185.889 196.701C172.977 196.701 166.478 203.46 166.478 216.893C166.478 230.498 172.024 237.518 183.116 237.864C188.316 237.864 192.302 235.784 194.989 231.625V247.744C194.989 251.037 196.722 252.77 200.188 252.77H205.475V214.553C204.955 202.594 198.455 196.701 185.889 196.701ZM186.063 228.852C180.43 228.852 177.57 225.039 177.31 217.326C177.31 209.266 180.257 205.28 186.236 205.28C192.216 205.28 195.162 209.266 195.075 217.326C194.729 225.039 191.696 228.852 186.063 228.852Z" fill="#399FB6"/>
<path fill-rule="evenodd" clip-rule="evenodd" d="M235.112 202.16V223.219C235.112 227.638 232.773 229.892 228.006 229.892C223.24 229.892 220.9 227.725 220.9 223.219V197.134H210.414V221.139C210.414 227.898 212.234 232.231 215.874 234.398C219.514 236.651 223.327 237.778 227.66 237.778C232.166 237.778 236.239 236.738 239.965 234.658C243.692 232.491 245.512 227.898 245.512 221.052V197.047H240.139C236.672 197.134 235.026 198.781 235.112 202.16Z" fill="#399FB6"/>
<path fill-rule="evenodd" clip-rule="evenodd" d="M268.823 196.527C256.171 196.614 249.758 203.374 249.758 216.979C249.758 230.585 256.084 237.604 268.65 237.951C278.876 237.951 284.595 233.271 286.848 224.779H279.136C277.749 224.779 276.536 225.212 275.583 226.252C273.503 228.158 271.25 229.112 268.823 229.112C263.71 229.112 260.937 225.992 260.59 219.926H287.542C288.322 204.327 282.082 196.527 268.823 196.527ZM260.764 212.82C261.544 207.533 264.23 204.847 268.736 204.847C273.243 204.847 275.843 207.533 276.449 212.82H260.764Z" fill="#399FB6"/>
<path fill-rule="evenodd" clip-rule="evenodd" d="M311.2 212.213C305.74 211.26 303.054 209.613 303.054 207.62C303.054 205.54 305.134 204.5 309.207 204.5C312.673 204.5 314.84 205.453 315.533 207.187C316.139 208.747 317.699 209.613 320.212 209.7H326.799C326.539 205.54 324.892 202.334 321.859 199.994C318.739 197.741 314.493 196.614 309.12 196.614C299.587 196.787 292.481 200.86 292.481 209.44C292.568 215.679 297.248 219.666 306.52 221.226C313.713 222.439 317.353 224.085 317.353 226.165C317.353 228.765 315.186 229.978 310.766 229.978C305.654 229.978 302.36 228.505 302.1 224.085H291.355C291.355 228.678 292.915 232.145 296.121 234.398C298.981 236.738 303.4 237.951 309.207 237.951C320.212 237.951 328.272 234.311 328.272 224.519C328.272 221.832 327.319 219.406 325.325 217.413C322.899 215.246 318.306 213.513 311.2 212.213Z" fill="#399FB6"/>
<path fill-rule="evenodd" clip-rule="evenodd" d="M349.33 196.527C339.711 196.527 334.251 200.167 333.038 207.533H343.524C344.044 205.627 346.124 204.76 349.85 204.76C354.183 204.76 356.35 205.887 356.61 208.14C356.61 210.306 354.356 211.606 349.85 212.126C339.278 213.08 332.085 215.679 331.825 225.299C331.825 234.138 338.758 238.558 348.81 237.864C360.076 237.084 367.009 232.231 367.009 221.139V207.533C366.662 200.167 360.769 196.527 349.33 196.527ZM356.696 220.706C356.696 226.339 353.143 229.718 347.337 229.718C344.044 229.718 342.311 228.245 342.051 225.039C342.051 222.092 344.217 220.186 348.377 219.406C351.41 218.799 354.27 217.933 356.696 216.979V220.706Z" fill="#399FB6"/>
<path fill-rule="evenodd" clip-rule="evenodd" d="M162.665 165.676C161.538 171.396 157.638 175.122 150.965 175.122C141.173 175.122 136.927 167.93 136.927 157.704C136.927 147.218 141.346 140.198 151.312 140.198C156.425 140.198 159.891 142.105 161.625 145.918C162.665 147.998 164.311 149.038 166.651 149.038H173.15C172.63 143.318 170.551 138.812 166.824 135.519C162.925 132.312 157.725 130.753 151.312 130.753C134.673 130.753 126.181 140.892 126.181 157.704C126.181 173.996 134.24 184.568 150.359 184.568C163.618 184.568 172.111 177.722 173.15 165.676H162.665Z" fill="#399FB6"/>
<path fill-rule="evenodd" clip-rule="evenodd" d="M211.801 153.804C211.541 146.265 205.821 142.625 194.555 142.625C185.11 142.625 179.823 146.351 178.523 153.804H188.836C189.356 151.898 191.349 150.944 194.989 150.944C199.235 150.944 201.402 152.071 201.662 154.411C201.662 156.664 199.408 157.964 194.989 158.484C184.676 159.524 177.57 162.123 177.31 171.829C177.31 180.842 184.07 185.348 193.949 184.568C204.955 183.788 211.801 178.849 211.801 167.583V153.804ZM201.835 167.15C201.835 172.869 198.368 176.249 192.649 176.249C189.443 176.249 187.709 174.689 187.449 171.483C187.449 168.45 189.529 166.543 193.602 165.763C196.635 165.157 199.408 164.29 201.748 163.337V167.15H201.835Z" fill="#399FB6"/>
<path fill-rule="evenodd" clip-rule="evenodd" d="M248.891 163.683C246.638 161.603 242.132 159.87 235.112 158.484C229.826 157.444 227.14 155.884 227.14 153.804C227.14 151.724 229.133 150.684 233.206 150.684C236.586 150.684 238.665 151.724 239.359 153.457C239.965 155.104 241.525 155.884 243.952 155.971H250.451C250.191 151.724 248.631 148.431 245.598 146.091C242.478 143.752 238.319 142.625 233.119 142.625C223.76 142.798 216.827 146.958 216.827 155.711C216.914 162.123 221.507 166.11 230.606 167.67C237.625 168.883 241.179 170.616 241.179 172.696C241.179 175.296 239.012 176.509 234.679 176.509C229.653 176.509 226.446 174.949 226.186 170.529H215.614C215.614 175.209 217.174 178.762 220.207 181.015C222.98 183.355 227.313 184.655 233.032 184.655C243.865 184.655 251.751 180.929 251.751 170.963C251.751 168.19 250.798 165.677 248.891 163.683Z" fill="#399FB6"/>
<path fill-rule="evenodd" clip-rule="evenodd" d="M272.463 142.625C263.017 142.625 257.731 146.351 256.431 153.804H266.743C267.263 151.898 269.256 150.944 272.896 150.944C277.142 150.944 279.309 152.071 279.569 154.411C279.569 156.664 277.316 157.964 272.896 158.484C262.584 159.524 255.477 162.123 255.217 171.829C255.217 180.842 261.977 185.348 271.856 184.568C282.862 183.788 289.708 178.849 289.708 167.583V153.804C289.535 146.265 283.815 142.625 272.463 142.625ZM279.742 167.15C279.742 172.869 276.276 176.249 270.556 176.249C267.35 176.249 265.617 174.689 265.357 171.483C265.357 168.45 267.437 166.543 271.51 165.763C274.543 165.157 277.316 164.29 279.656 163.337V167.15H279.742Z" fill="#399FB6"/>
<path fill-rule="evenodd" clip-rule="evenodd" d="M219.427 15.668C213.274 10.5551 204.261 10.8151 198.455 16.2747L88.8303 118.36V93.4021H46.6269V157.53L7.45655 194.014C2.60359 198.521 5.37671 206.753 11.9629 207.273L35.7944 209.266C41.4273 209.786 46.9735 207.533 50.6999 203.374L200.188 36.9864C204.955 31.7001 212.927 30.8335 218.647 35.0799L395 181.362L219.427 15.668Z" fill="#399FB6"/>
<path d="M66.8187 273.308C66.8187 275.648 65.9521 277.468 64.1322 278.594C62.399 279.721 60.2325 280.328 57.6327 280.328C57.1994 280.328 56.8528 280.328 56.5928 280.328C56.5928 282.234 56.6795 284.661 56.7661 287.694H52.6931C52.7798 284.834 52.8664 281.454 52.8664 277.554C52.8664 274.001 52.7798 270.882 52.6931 268.282H55.2929C55.6396 268.282 56.3328 268.282 57.3728 268.195C58.4127 268.195 59.3659 268.108 60.0592 268.108C61.9657 268.108 63.5256 268.542 64.8255 269.408C66.2121 270.275 66.8187 271.575 66.8187 273.308ZM63.0057 274.175C63.0057 272.008 61.6191 270.968 58.7593 270.968C58.066 270.968 57.2861 271.055 56.5062 271.228C56.5928 273.135 56.6795 275.215 56.6795 277.641C56.9395 277.641 57.1994 277.641 57.5461 277.641C61.1858 277.641 63.0057 276.428 63.0057 274.175Z" fill="#399FB6"/>
<path d="M77.8245 273.481L76.9579 276.948C76.178 276.688 75.4847 276.514 74.7048 276.514C73.2315 276.514 72.2783 277.208 71.845 278.508C71.845 282.494 71.845 285.527 71.9316 287.694H67.9453C68.1186 284.661 68.2053 282.234 68.2053 280.328C68.2053 277.988 67.9453 275.735 67.4253 273.568L71.2384 273.135C71.4117 274.261 71.4983 274.868 71.4983 275.041H71.7583C72.7116 273.655 73.9248 272.961 75.398 272.961C76.0913 272.961 76.8712 273.135 77.8245 273.481Z" fill="#399FB6"/>
<path d="M92.9033 280.241C92.9033 282.754 92.1234 284.747 90.5635 286.134C89.0036 287.52 87.1838 288.214 85.1039 288.214C83.1108 288.214 81.3776 287.607 79.991 286.307C78.6044 285.007 77.8245 283.187 77.8245 280.847C77.8245 278.334 78.6044 276.341 80.1643 274.955C81.7242 273.568 83.5441 272.788 85.6239 272.788C87.6171 272.788 89.2636 273.481 90.7368 274.695C92.2101 276.081 92.9033 277.901 92.9033 280.241ZM89.0036 280.674C89.0036 279.201 88.657 277.988 87.9637 277.034C87.2704 276.081 86.4038 275.561 85.2773 275.561C84.2373 275.561 83.3707 275.994 82.6775 276.948C81.9842 277.901 81.7242 279.028 81.7242 280.414C81.7242 281.887 82.0708 283.101 82.7641 284.054C83.4574 285.007 84.324 285.527 85.4506 285.527C86.4905 285.527 87.3571 285.094 88.0504 284.141C88.657 283.187 89.0036 282.061 89.0036 280.674Z" fill="#399FB6"/>
<path d="M108.069 287.694L104.516 287.78C104.429 287.434 104.429 287.087 104.429 286.654H104.169C103.043 287.607 101.656 288.04 100.009 288.04C98.1029 288.04 96.5431 287.347 95.4165 285.96C94.2899 284.574 93.7699 282.927 93.7699 281.021C93.7699 278.854 94.3766 276.948 95.5898 275.301C96.803 273.655 98.5362 272.875 100.703 272.875C102.089 272.875 103.216 273.135 103.909 273.655H104.082C104.082 271.315 103.996 268.975 103.736 266.549L107.982 266.462C107.809 268.802 107.722 272.095 107.722 276.428C107.722 281.021 107.809 284.661 108.069 287.694ZM104.342 284.314C104.342 281.107 104.256 278.508 104.082 276.428C103.389 275.908 102.609 275.735 101.656 275.735C100.356 275.735 99.4028 276.254 98.7096 277.208C98.1029 278.161 97.7563 279.374 97.7563 280.761C97.7563 281.974 98.1029 283.101 98.7096 283.967C99.3162 284.92 100.183 285.354 101.309 285.354C102.696 285.354 103.736 285.007 104.342 284.314Z" fill="#399FB6"/>
<path d="M123.321 287.694L119.855 287.78C119.681 287.26 119.595 286.827 119.595 286.48H119.335C118.035 287.52 116.475 288.127 114.742 288.127C113.095 288.127 111.882 287.694 111.015 286.827C110.149 285.96 109.802 284.227 109.802 281.627C109.802 281.281 109.802 280.847 109.802 280.328C109.802 279.808 109.802 279.288 109.802 278.854C109.802 277.728 109.715 275.994 109.542 273.568L113.702 273.395C113.528 275.301 113.442 277.121 113.442 278.854C113.442 281.281 113.615 282.927 113.962 283.794C114.308 284.661 115.002 285.094 116.128 285.094C117.255 285.094 118.295 284.834 119.161 284.227C119.161 279.028 119.075 275.475 118.988 273.568L123.061 273.395C122.974 275.301 122.888 277.728 122.888 280.674C122.974 283.014 123.061 285.267 123.321 287.694Z" fill="#399FB6"/>
<path d="M136.58 284.574L136.32 287.434C135.453 287.954 134.153 288.127 132.594 288.127C129.994 288.127 128.087 287.434 126.701 285.96C125.314 284.487 124.621 282.841 124.621 280.761C124.621 278.681 125.314 276.861 126.787 275.301C128.261 273.741 130.167 272.961 132.68 272.961C133.894 272.961 135.02 273.135 135.973 273.395L135.453 276.428C134.5 276.081 133.547 275.821 132.334 275.821C131.12 275.821 130.167 276.254 129.474 277.121C128.781 277.988 128.434 279.028 128.434 280.241C128.434 281.627 128.867 282.754 129.647 283.707C130.514 284.661 131.64 285.094 133.2 285.094C134.153 285.18 135.28 284.92 136.58 284.574Z" fill="#399FB6"/>
<path d="M146.546 284.92L146.286 287.52C145.593 287.78 144.726 287.954 143.686 287.954C142.04 287.954 140.826 287.52 140.046 286.654C139.266 285.787 138.833 284.054 138.833 281.627C138.833 280.154 138.833 278.421 138.833 276.514C138.313 276.514 137.62 276.514 136.753 276.601L136.84 273.655C137.62 273.741 138.313 273.741 139.006 273.741C139.006 273.221 139.093 271.835 139.093 269.582L142.646 269.148C142.473 271.142 142.386 272.701 142.386 273.741C143.253 273.741 144.466 273.741 146.113 273.655L146.026 276.601C144.553 276.514 143.253 276.514 142.3 276.514C142.3 277.814 142.3 279.201 142.3 280.674C142.3 282.407 142.473 283.621 142.819 284.227C143.166 284.834 143.773 285.094 144.726 285.094C145.333 285.18 145.939 285.094 146.546 284.92Z" fill="#399FB6"/>
<path d="M161.971 280.241C161.971 282.754 161.191 284.747 159.632 286.134C158.072 287.52 156.252 288.214 154.172 288.214C152.179 288.214 150.446 287.607 149.059 286.307C147.672 285.007 146.892 283.187 146.892 280.847C146.892 278.334 147.672 276.341 149.232 274.955C150.792 273.568 152.612 272.788 154.692 272.788C156.685 272.788 158.332 273.481 159.805 274.695C161.278 276.081 161.971 277.901 161.971 280.241ZM158.072 280.674C158.072 279.201 157.725 277.988 157.032 277.034C156.338 276.081 155.472 275.561 154.345 275.561C153.305 275.561 152.439 275.994 151.745 276.948C151.052 277.901 150.792 279.028 150.792 280.414C150.792 281.887 151.139 283.101 151.832 284.054C152.525 285.007 153.392 285.527 154.519 285.527C155.558 285.527 156.425 285.094 157.118 284.141C157.725 283.187 158.072 282.061 158.072 280.674Z" fill="#399FB6"/>
<path d="M173.584 283.621C173.584 286.567 171.331 288.127 166.911 288.127C165.264 288.127 163.878 287.954 162.665 287.607L163.185 284.661C164.398 285.094 165.698 285.354 166.911 285.354C168.124 285.354 168.904 285.267 169.424 285.094C169.857 284.92 170.117 284.574 170.117 284.054C170.117 283.361 169.251 282.667 167.604 281.974C166.131 281.367 165.091 280.847 164.398 280.241C163.445 279.461 163.011 278.508 163.011 277.381C163.011 276.081 163.531 274.955 164.484 274.175C165.438 273.395 166.911 272.961 168.817 272.961C170.551 272.961 171.937 273.135 172.977 273.395L172.457 276.341C171.331 275.908 170.117 275.648 168.817 275.648C167.258 275.648 166.391 276.081 166.391 276.861C166.391 277.294 166.564 277.641 166.911 277.901C167.258 278.161 167.951 278.508 168.991 278.854C170.464 279.374 171.504 279.894 172.111 280.501C173.15 281.367 173.584 282.321 173.584 283.621Z" fill="#399FB6"/>
<path d="M186.669 287.694H182.683C182.77 285.094 182.856 283.014 182.856 281.454C182.856 279.808 182.856 278.161 182.77 276.341L180.343 277.381L179.563 275.908L184.763 271.835H186.583C186.496 275.908 186.409 279.114 186.409 281.367C186.496 283.014 186.496 285.094 186.669 287.694Z" fill="#399FB6"/>
<path d="M202.788 279.808C202.788 282.667 202.182 284.747 200.968 286.22C199.755 287.607 198.022 288.3 195.769 288.3C193.602 288.3 191.869 287.694 190.829 286.48C189.703 285.267 189.183 283.274 189.183 280.587C189.183 277.814 189.789 275.648 191.002 274.088C192.216 272.528 193.949 271.748 196.202 271.748C198.369 271.748 200.015 272.441 201.142 273.828C202.268 275.128 202.788 277.121 202.788 279.808ZM199.062 280.761C199.062 278.941 198.802 277.468 198.282 276.254C197.762 275.041 196.895 274.521 195.769 274.521C193.776 274.521 192.822 276.168 192.822 279.548C192.822 281.541 193.082 283.014 193.602 283.967C194.122 284.92 194.902 285.44 196.115 285.44C198.109 285.354 199.062 283.794 199.062 280.761Z" fill="#399FB6"/>
<path d="M217.954 279.808C217.954 282.667 217.347 284.747 216.134 286.22C214.921 287.607 213.187 288.3 210.934 288.3C208.768 288.3 207.035 287.694 205.995 286.48C204.868 285.267 204.348 283.274 204.348 280.587C204.348 277.814 204.955 275.648 206.168 274.088C207.381 272.528 209.114 271.748 211.368 271.748C213.534 271.748 215.181 272.441 216.307 273.828C217.347 275.128 217.954 277.121 217.954 279.808ZM214.227 280.761C214.227 278.941 213.967 277.468 213.447 276.254C212.927 275.041 212.061 274.521 210.934 274.521C208.941 274.521 207.988 276.168 207.988 279.548C207.988 281.541 208.248 283.014 208.768 283.967C209.288 284.92 210.068 285.44 211.281 285.44C213.187 285.354 214.227 283.794 214.227 280.761Z" fill="#399FB6"/>
<path d="M226.446 271.748C226.446 272.701 226.1 273.568 225.493 274.261C224.8 275.041 223.847 275.388 222.633 275.388C221.42 275.388 220.467 275.041 219.774 274.261C219.167 273.568 218.82 272.788 218.82 271.835C218.82 270.882 219.167 270.015 219.774 269.322C220.467 268.542 221.42 268.195 222.633 268.195C223.847 268.195 224.8 268.542 225.493 269.322C226.1 269.928 226.446 270.795 226.446 271.748ZM232.339 268.368C232.339 269.235 230.433 272.441 226.706 277.814C222.98 283.274 221.073 286.48 221.073 287.694L218.82 287.52C218.82 286.567 220.727 283.361 224.453 277.901C228.18 272.441 230.086 269.235 230.086 268.195L232.339 268.368ZM224.28 271.748C224.28 271.228 224.107 270.708 223.847 270.362C223.587 269.928 223.153 269.755 222.633 269.755C222.113 269.755 221.68 269.928 221.42 270.362C221.16 270.708 220.987 271.228 220.987 271.748C220.987 272.268 221.16 272.701 221.42 273.135C221.767 273.568 222.113 273.741 222.633 273.741C223.153 273.741 223.587 273.568 223.847 273.135C224.193 272.788 224.28 272.355 224.28 271.748ZM232.773 284.227C232.773 285.18 232.426 286.047 231.819 286.74C231.126 287.52 230.173 287.867 228.96 287.867C227.746 287.867 226.793 287.52 226.1 286.74C225.493 286.047 225.146 285.267 225.146 284.314C225.146 283.361 225.493 282.494 226.1 281.801C226.793 281.021 227.746 280.674 228.96 280.674C230.173 280.674 231.126 281.021 231.819 281.801C232.426 282.407 232.773 283.274 232.773 284.227ZM230.606 284.314C230.606 283.794 230.433 283.274 230.173 282.927C229.913 282.494 229.479 282.321 228.96 282.321C228.44 282.321 228.006 282.494 227.746 282.927C227.486 283.274 227.313 283.794 227.313 284.314C227.313 284.834 227.486 285.267 227.746 285.7C228.093 286.134 228.44 286.307 228.96 286.307C229.479 286.307 229.913 286.134 230.173 285.7C230.519 285.267 230.606 284.834 230.606 284.314Z" fill="#399FB6"/>
<path d="M252.791 287.694H248.805C249.065 285.18 249.151 282.667 249.151 280.068C249.151 278.508 248.891 277.468 248.458 276.861C248.025 276.255 247.331 275.995 246.378 275.995C245.252 275.995 244.125 276.341 243.172 277.121C243.258 281.021 243.258 284.487 243.258 287.607H239.272C239.445 284.487 239.532 282.061 239.532 280.241C239.532 277.901 239.272 275.648 238.839 273.481L242.652 273.048L242.912 274.608H243.172C244.558 273.395 246.118 272.875 247.851 272.875C249.411 272.875 250.625 273.221 251.491 273.915C252.444 274.608 252.878 275.995 252.878 277.901C252.878 278.161 252.878 278.594 252.878 279.028C252.878 279.548 252.878 279.981 252.878 280.501C252.704 282.061 252.791 284.401 252.791 287.694Z" fill="#399FB6"/>
<path d="M267.09 287.694L263.537 287.78C263.364 287.347 263.277 287 263.277 286.654H263.104C261.977 287.607 260.504 288.04 258.684 288.04C257.471 288.04 256.431 287.694 255.564 287C254.784 286.307 254.351 285.354 254.351 284.227C254.351 282.754 254.958 281.454 256.257 280.501C257.557 279.548 259.81 279.028 263.017 278.941C263.017 278.768 263.017 278.594 263.017 278.421C263.017 277.381 262.757 276.601 262.237 276.255C261.717 275.908 260.764 275.735 259.377 275.735C257.904 275.735 256.431 275.908 254.958 276.341L255.304 273.568C256.691 273.135 258.597 272.875 261.024 272.875C262.844 272.875 264.23 273.221 265.183 274.001C266.137 274.781 266.657 276.081 266.657 277.988C266.657 278.421 266.657 279.201 266.57 280.241C266.57 281.367 266.483 282.061 266.483 282.494C266.57 284.661 266.743 286.394 267.09 287.694ZM263.104 284.574C263.017 283.187 263.017 282.061 263.017 281.107C259.637 281.107 257.904 281.974 257.904 283.707C257.904 284.921 258.684 285.527 260.157 285.527C261.284 285.44 262.324 285.18 263.104 284.574Z" fill="#399FB6"/>
<path d="M277.576 284.92L277.316 287.607C276.623 287.867 275.756 288.04 274.716 288.04C273.069 288.04 271.856 287.607 271.076 286.74C270.296 285.874 269.863 284.141 269.863 281.714C269.863 280.241 269.863 278.508 269.863 276.601C269.343 276.601 268.65 276.601 267.783 276.688L267.87 273.741C268.65 273.828 269.343 273.828 270.036 273.828C270.036 273.308 270.123 271.921 270.123 269.668L273.676 269.235C273.503 271.228 273.416 272.788 273.416 273.828C274.283 273.828 275.496 273.828 277.142 273.741L277.056 276.688C275.583 276.601 274.283 276.601 273.329 276.601C273.329 277.901 273.329 279.288 273.329 280.761C273.329 282.494 273.503 283.707 273.849 284.314C274.196 284.92 274.803 285.18 275.756 285.18C276.363 285.18 276.969 285.094 277.576 284.92Z" fill="#399FB6"/>
<path d="M291.961 287.694L288.495 287.78C288.322 287.26 288.235 286.827 288.235 286.48H287.975C286.675 287.52 285.115 288.127 283.382 288.127C281.735 288.127 280.522 287.694 279.656 286.827C278.789 285.96 278.442 284.227 278.442 281.627C278.442 281.281 278.442 280.847 278.442 280.328C278.442 279.808 278.442 279.288 278.442 278.854C278.442 277.728 278.356 275.994 278.182 273.568L282.342 273.395C282.169 275.301 282.082 277.121 282.082 278.854C282.082 281.281 282.255 282.927 282.602 283.794C282.949 284.661 283.642 285.094 284.769 285.094C285.895 285.094 286.935 284.834 287.802 284.227C287.802 279.028 287.715 275.475 287.628 273.568L291.701 273.395C291.615 275.301 291.528 277.728 291.528 280.674C291.528 283.014 291.701 285.267 291.961 287.694Z" fill="#399FB6"/>
<path d="M303.747 273.481L302.88 276.948C302.101 276.688 301.407 276.514 300.627 276.514C299.154 276.514 298.201 277.208 297.768 278.508C297.768 282.494 297.768 285.527 297.854 287.694H293.868C294.041 284.661 294.128 282.234 294.128 280.328C294.128 277.988 293.868 275.735 293.348 273.568L297.161 273.135C297.334 274.261 297.421 274.868 297.421 275.041H297.681C298.634 273.655 299.847 272.961 301.321 272.961C302.014 272.961 302.88 273.135 303.747 273.481Z" fill="#399FB6"/>
<path d="M316.573 287.694L313.02 287.78C312.846 287.347 312.76 287 312.76 286.654H312.673C311.546 287.607 310.073 288.04 308.253 288.04C307.04 288.04 306 287.694 305.134 287C304.354 286.307 303.92 285.354 303.92 284.227C303.92 282.754 304.527 281.454 305.827 280.501C307.127 279.548 309.38 279.028 312.586 278.941C312.586 278.768 312.586 278.594 312.586 278.421C312.586 277.381 312.326 276.601 311.806 276.255C311.286 275.908 310.333 275.735 308.947 275.735C307.473 275.735 306 275.908 304.527 276.341L304.874 273.568C306.26 273.135 308.167 272.875 310.593 272.875C312.413 272.875 313.8 273.221 314.753 274.001C315.706 274.781 316.226 276.081 316.226 277.988C316.226 278.421 316.226 279.201 316.139 280.241C316.139 281.367 316.053 282.061 316.053 282.494C316.139 284.661 316.313 286.394 316.573 287.694ZM312.586 284.574C312.5 283.187 312.5 282.061 312.5 281.107C309.12 281.107 307.387 281.974 307.387 283.707C307.387 284.921 308.167 285.527 309.64 285.527C310.853 285.44 311.806 285.18 312.586 284.574Z" fill="#399FB6"/>
<path d="M322.726 287.694H318.653C318.826 284.314 318.913 280.587 318.913 276.601C318.913 272.701 318.739 269.408 318.479 266.722L322.812 266.462C322.639 269.322 322.552 272.701 322.552 276.601C322.466 280.587 322.552 284.314 322.726 287.694Z" fill="#399FB6"/>
<path d="M337.891 279.028C337.891 279.548 337.891 280.241 337.804 281.021L328.185 281.194C328.359 282.321 328.792 283.274 329.658 283.967C330.525 284.66 331.565 285.094 332.951 285.094C334.425 285.094 336.071 284.834 337.718 284.401L337.458 287.26C336.071 287.78 334.338 288.04 332.345 288.04C329.745 288.04 327.839 287.347 326.452 285.874C325.065 284.401 324.372 282.667 324.372 280.674C324.372 278.594 325.065 276.688 326.279 275.128C327.579 273.568 329.398 272.788 331.652 272.788C333.731 272.788 335.291 273.395 336.331 274.521C337.371 275.648 337.891 277.208 337.891 279.028ZM334.425 278.941C334.425 276.688 333.471 275.475 331.478 275.475C329.658 275.475 328.532 276.688 328.185 279.028L334.425 278.941Z" fill="#399FB6"/>
<path d="M349.504 283.621C349.504 286.567 347.25 288.127 342.831 288.127C341.184 288.127 339.798 287.954 338.584 287.607L339.104 284.661C340.318 285.094 341.617 285.354 342.831 285.354C344.044 285.354 344.824 285.267 345.344 285.094C345.777 284.92 346.037 284.574 346.037 284.054C346.037 283.361 345.171 282.667 343.524 281.974C342.051 281.367 341.011 280.847 340.318 280.241C339.364 279.461 338.931 278.508 338.931 277.381C338.931 276.081 339.451 274.955 340.404 274.175C341.358 273.395 342.831 272.961 344.737 272.961C346.47 272.961 347.857 273.135 348.897 273.395L348.377 276.341C347.25 275.908 346.037 275.648 344.737 275.648C343.177 275.648 342.311 276.081 342.311 276.861C342.311 277.294 342.484 277.641 342.831 277.901C343.177 278.161 343.871 278.508 344.911 278.854C346.384 279.374 347.424 279.894 348.03 280.501C349.07 281.367 349.504 282.321 349.504 283.621Z" fill="#399FB6"/>
</svg>
